REM DIRINDEX 1\2\4\18,1\2\4\19,1\2\5\20,1\2\5\21,1\2\6\22,1\2\7\23,1\2\8\24,1\2\8\25,1\2\9\26,1\2\10\27,1\3\11\28,1\3\11\29,1\3\11\30,1\3\11\31,1\3\12\32,1\3\12\33,1\3\12\34,1\3\12\35,1\3\13\36,1\3\13\37,1\3\14\38,1\3\14\39,1\3\15\40,1\3\15\41,1\3\15\42,1\3\16\43,1\3\16\44,1\3\17\45,1\3\17\46
REM DIRNAME folder01,folder02,folder03,folder04,folder05,folder06,folder07,folder08,folder09,folder10,folder11,folder12,folder13,folder14,folder15,folder16,folder17,folder18,folder19,folder20,folder21,folder22,folder23,folder24,folder25,folder26,folder27,folder28,folder29,folder30,folder31,folder32,folder33,folder34,folder35,folder36,folder37,folder38,folder39,folder40,folder41,folder42,folder43,folder44,folder45,folder46
TITLE ""
FILE "08.mp3" MP3
  TRACK 01 AUDIO
    TITLE "0:"
    INDEX 01 00:00:00
  TRACK 02 AUDIO
    TITLE "28:cjc024_5260"
    INDEX 01 00:00:15
  TRACK 03 AUDIO
    TITLE "0:"
    INDEX 01 00:01:40
  TRACK 04 AUDIO
    TITLE "29:cjc024_5261"
    INDEX 01 00:02:06
  TRACK 05 AUDIO
    TITLE "0:"
    INDEX 01 00:04:31
  TRACK 06 AUDIO
    TITLE "30:cjc024_5262"
    INDEX 01 00:04:68
  TRACK 07 AUDIO
    TITLE "0:"
    INDEX 01 00:06:49
  TRACK 08 AUDIO
    TITLE "31:cjc024_5263"
    INDEX 01 00:07:03
  TRACK 09 AUDIO
    TITLE "0:"
    INDEX 01 00:08:60
  TRACK 10 AUDIO
    TITLE "28:cjc024_5264"
    INDEX 01 00:09:63
  TRACK 11 AUDIO
    TITLE "0:"
    INDEX 01 00:11:15
  TRACK 12 AUDIO
    TITLE "29:cjc024_5265"
    INDEX 01 00:11:50
  TRACK 13 AUDIO
    TITLE "0:"
    INDEX 01 00:13:57
  TRACK 14 AUDIO
    TITLE "30:cjc024_5266"
    INDEX 01 00:14:23
  TRACK 15 AUDIO
    TITLE "0:"
    INDEX 01 00:16:14
  TRACK 16 AUDIO
    TITLE "31:cjc024_5267"
    INDEX 01 00:16:48
  TRACK 17 AUDIO
    TITLE "0:"
    INDEX 01 00:18:37
  TRACK 18 AUDIO
    TITLE "28:cjc024_5268"
    INDEX 01 00:19:38
  TRACK 19 AUDIO
    TITLE "0:"
    INDEX 01 00:20:47
  TRACK 20 AUDIO
    TITLE "29:cjc024_5269"
    INDEX 01 00:21:09
  TRACK 21 AUDIO
    TITLE "0:"
    INDEX 01 00:23:03
  TRACK 22 AUDIO
    TITLE "30:cjc024_5270"
    INDEX 01 00:23:38
  TRACK 23 AUDIO
    TITLE "0:"
    INDEX 01 00:25:11
  TRACK 24 AUDIO
    TITLE "31:cjc024_5271"
    INDEX 01 00:25:35
  TRACK 25 AUDIO
    TITLE "0:"
    INDEX 01 00:27:08
  TRACK 26 AUDIO
    TITLE "28:cjc024_5272"
    INDEX 01 00:28:08
  TRACK 27 AUDIO
    TITLE "0:"
    INDEX 01 00:29:27
  TRACK 28 AUDIO
    TITLE "29:cjc024_5273"
    INDEX 01 00:29:66
  TRACK 29 AUDIO
    TITLE "0:"
    INDEX 01 00:34:26
  TRACK 30 AUDIO
    TITLE "30:cjc024_5274"
    INDEX 01 00:34:65
  TRACK 31 AUDIO
    TITLE "0:"
    INDEX 01 00:37:65
  TRACK 32 AUDIO
    TITLE "31:cjc024_5275"
    INDEX 01 00:38:16
  TRACK 33 AUDIO
    TITLE "0:"
    INDEX 01 00:41:16
  TRACK 34 AUDIO
    TITLE "28:cjc024_5276"
    INDEX 01 00:42:18
  TRACK 35 AUDIO
    TITLE "0:"
    INDEX 01 00:43:13
  TRACK 36 AUDIO
    TITLE "29:cjc024_5277"
    INDEX 01 00:43:54
  TRACK 37 AUDIO
    TITLE "0:"
    INDEX 01 00:46:35
  TRACK 38 AUDIO
    TITLE "30:cjc024_5278"
    INDEX 01 00:46:70
  TRACK 39 AUDIO
    TITLE "0:"
    INDEX 01 00:49:29
  TRACK 40 AUDIO
    TITLE "31:cjc024_5279"
    INDEX 01 00:49:61
  TRACK 41 AUDIO
    TITLE "0:"
    INDEX 01 00:52:20
  TRACK 42 AUDIO
    TITLE "28:cjc024_5280"
    INDEX 01 00:53:25
  TRACK 43 AUDIO
    TITLE "0:"
    INDEX 01 00:54:30
  TRACK 44 AUDIO
    TITLE "29:cjc024_5281"
    INDEX 01 00:54:68
  TRACK 45 AUDIO
    TITLE "0:"
    INDEX 01 00:56:71
  TRACK 46 AUDIO
    TITLE "30:cjc024_5282"
    INDEX 01 00:57:39
  TRACK 47 AUDIO
    TITLE "0:"
    INDEX 01 00:59:24
  TRACK 48 AUDIO
    TITLE "31:cjc024_5283"
    INDEX 01 00:59:51
  TRACK 49 AUDIO
    TITLE "0:"
    INDEX 01 01:01:36
  TRACK 50 AUDIO
    TITLE "28:cjc024_5284"
    INDEX 01 01:02:38
  TRACK 51 AUDIO
    TITLE "0:"
    INDEX 01 01:03:49
  TRACK 52 AUDIO
    TITLE "29:cjc024_5285"
    INDEX 01 01:04:11
  TRACK 53 AUDIO
    TITLE "0:"
    INDEX 01 01:07:23
  TRACK 54 AUDIO
    TITLE "30:cjc024_5286"
    INDEX 01 01:07:63
  TRACK 55 AUDIO
    TITLE "0:"
    INDEX 01 01:09:61
  TRACK 56 AUDIO
    TITLE "31:cjc024_5287"
    INDEX 01 01:10:14
  TRACK 57 AUDIO
    TITLE "0:"
    INDEX 01 01:12:15
  TRACK 58 AUDIO
    TITLE "28:cjc024_5288"
    INDEX 01 01:13:16
  TRACK 59 AUDIO
    TITLE "0:"
    INDEX 01 01:14:31
  TRACK 60 AUDIO
    TITLE "29:cjc024_5289"
    INDEX 01 01:14:68
  TRACK 61 AUDIO
    TITLE "0:"
    INDEX 01 01:17:08
  TRACK 62 AUDIO
    TITLE "30:cjc024_5290"
    INDEX 01 01:17:45
  TRACK 63 AUDIO
    TITLE "0:"
    INDEX 01 01:19:36
  TRACK 64 AUDIO
    TITLE "31:cjc024_5291"
    INDEX 01 01:19:64
  TRACK 65 AUDIO
    TITLE "0:"
    INDEX 01 01:21:55
  TRACK 66 AUDIO
    TITLE "28:cjc024_5292"
    INDEX 01 01:22:56
  TRACK 67 AUDIO
    TITLE "0:"
    INDEX 01 01:24:06
  TRACK 68 AUDIO
    TITLE "29:cjc024_5293"
    INDEX 01 01:24:51
  TRACK 69 AUDIO
    TITLE "0:"
    INDEX 01 01:26:30
  TRACK 70 AUDIO
    TITLE "30:cjc024_5294"
    INDEX 01 01:26:74
  TRACK 71 AUDIO
    TITLE "0:"
    INDEX 01 01:28:72
  TRACK 72 AUDIO
    TITLE "31:cjc024_5295"
    INDEX 01 01:29:23
  TRACK 73 AUDIO
    TITLE "0:"
    INDEX 01 01:31:22
  TRACK 74 AUDIO
    TITLE "28:cjc024_5296"
    INDEX 01 01:32:23
  TRACK 75 AUDIO
    TITLE "0:"
    INDEX 01 01:33:38
  TRACK 76 AUDIO
    TITLE "29:cjc024_5297"
    INDEX 01 01:34:05
  TRACK 77 AUDIO
    TITLE "0:"
    INDEX 01 01:36:52
  TRACK 78 AUDIO
    TITLE "30:cjc024_5298"
    INDEX 01 01:37:15
  TRACK 79 AUDIO
    TITLE "0:"
    INDEX 01 01:39:37
  TRACK 80 AUDIO
    TITLE "31:cjc024_5299"
    INDEX 01 01:39:63
  TRACK 81 AUDIO
    TITLE "0:"
    INDEX 01 01:42:06
  TRACK 82 AUDIO
    TITLE "28:cjc024_5300"
    INDEX 01 01:43:05
  TRACK 83 AUDIO
    TITLE "0:"
    INDEX 01 01:44:17
  TRACK 84 AUDIO
    TITLE "29:cjc024_5301"
    INDEX 01 01:44:54
  TRACK 85 AUDIO
    TITLE "0:"
    INDEX 01 01:46:29
  TRACK 86 AUDIO
    TITLE "30:cjc024_5302"
    INDEX 01 01:46:70
  TRACK 87 AUDIO
    TITLE "0:"
    INDEX 01 01:48:48
  TRACK 88 AUDIO
    TITLE "31:cjc024_5303"
    INDEX 01 01:49:00
  TRACK 89 AUDIO
    TITLE "0:"
    INDEX 01 01:50:54
  TRACK 90 AUDIO
    TITLE "28:cjc024_5304"
    INDEX 01 01:51:56
  TRACK 91 AUDIO
    TITLE "0:"
    INDEX 01 01:52:57
  TRACK 92 AUDIO
    TITLE "29:cjc024_5305"
    INDEX 01 01:53:21
  TRACK 93 AUDIO
    TITLE "0:"
    INDEX 01 01:57:29
  TRACK 94 AUDIO
    TITLE "30:cjc024_5306"
    INDEX 01 01:57:66
  TRACK 95 AUDIO
    TITLE "0:"
    INDEX 01 02:00:51
  TRACK 96 AUDIO
    TITLE "31:cjc024_5307"
    INDEX 01 02:01:03
  TRACK 97 AUDIO
    TITLE "0:"
    INDEX 01 02:03:65
  TRACK 98 AUDIO
    TITLE "28:cjc024_5308"
    INDEX 01 02:04:64
  TRACK 99 AUDIO
    TITLE "0:"
    INDEX 01 02:06:05
  TRACK 100 AUDIO
    TITLE "29:cjc024_5309"
    INDEX 01 02:06:40
  TRACK 101 AUDIO
    TITLE "0:"
    INDEX 01 02:08:48
  TRACK 102 AUDIO
    TITLE "30:cjc024_5310"
    INDEX 01 02:09:11
  TRACK 103 AUDIO
    TITLE "0:"
    INDEX 01 02:11:06
  TRACK 104 AUDIO
    TITLE "31:cjc024_5311"
    INDEX 01 02:11:33
  TRACK 105 AUDIO
    TITLE "0:"
    INDEX 01 02:13:30
  TRACK 106 AUDIO
    TITLE "28:cjc024_5312"
    INDEX 01 02:14:30
  TRACK 107 AUDIO
    TITLE "0:"
    INDEX 01 02:15:49
  TRACK 108 AUDIO
    TITLE "29:cjc024_5313"
    INDEX 01 02:16:07
  TRACK 109 AUDIO
    TITLE "0:"
    INDEX 01 02:19:56
  TRACK 110 AUDIO
    TITLE "30:cjc024_5314"
    INDEX 01 02:20:22
  TRACK 111 AUDIO
    TITLE "0:"
    INDEX 01 02:23:28
  TRACK 112 AUDIO
    TITLE "31:cjc024_5315"
    INDEX 01 02:23:54
  TRACK 113 AUDIO
    TITLE "0:"
    INDEX 01 02:26:58
  TRACK 114 AUDIO
    TITLE "28:cjc024_5316"
    INDEX 01 02:27:60
  TRACK 115 AUDIO
    TITLE "0:"
    INDEX 01 02:29:06
  TRACK 116 AUDIO
    TITLE "29:cjc024_5317"
    INDEX 01 02:29:45
  TRACK 117 AUDIO
    TITLE "0:"
    INDEX 01 02:31:32
  TRACK 118 AUDIO
    TITLE "30:cjc024_5318"
    INDEX 01 02:31:69
  TRACK 119 AUDIO
    TITLE "0:"
    INDEX 01 02:33:50
  TRACK 120 AUDIO
    TITLE "31:cjc024_5319"
    INDEX 01 02:34:01
  TRACK 121 AUDIO
    TITLE "0:"
    INDEX 01 02:35:57
  TRACK 122 AUDIO
    TITLE "28:cjc024_5320"
    INDEX 01 02:36:59
  TRACK 123 AUDIO
    TITLE "0:"
    INDEX 01 02:37:58
  TRACK 124 AUDIO
    TITLE "29:cjc024_5321"
    INDEX 01 02:38:20
  TRACK 125 AUDIO
    TITLE "0:"
    INDEX 01 02:40:47
  TRACK 126 AUDIO
    TITLE "30:cjc024_5322"
    INDEX 01 02:41:07
  TRACK 127 AUDIO
    TITLE "0:"
    INDEX 01 02:43:23
  TRACK 128 AUDIO
    TITLE "31:cjc024_5323"
    INDEX 01 02:43:47
  TRACK 129 AUDIO
    TITLE "0:"
    INDEX 01 02:45:63
  TRACK 130 AUDIO
    TITLE "28:cjc024_5324"
    INDEX 01 02:46:63
  TRACK 131 AUDIO
    TITLE "0:"
    INDEX 01 02:48:15
  TRACK 132 AUDIO
    TITLE "29:cjc024_5325"
    INDEX 01 02:48:54
  TRACK 133 AUDIO
    TITLE "0:"
    INDEX 01 02:51:31
  TRACK 134 AUDIO
    TITLE "30:cjc024_5326"
    INDEX 01 02:51:68
  TRACK 135 AUDIO
    TITLE "0:"
    INDEX 01 02:54:31
  TRACK 136 AUDIO
    TITLE "31:cjc024_5327"
    INDEX 01 02:54:54
  TRACK 137 AUDIO
    TITLE "0:"
    INDEX 01 02:57:20
  TRACK 138 AUDIO
    TITLE "28:cjc024_5328"
    INDEX 01 02:58:17
  TRACK 139 AUDIO
    TITLE "0:"
    INDEX 01 02:59:40
  TRACK 140 AUDIO
    TITLE "29:cjc024_5329"
    INDEX 01 03:00:02
  TRACK 141 AUDIO
    TITLE "0:"
    INDEX 01 03:03:38
  TRACK 142 AUDIO
    TITLE "30:cjc024_5330"
    INDEX 01 03:04:00
  TRACK 143 AUDIO
    TITLE "0:"
    INDEX 01 03:07:41
  TRACK 144 AUDIO
    TITLE "31:cjc024_5331"
    INDEX 01 03:07:69
  TRACK 145 AUDIO
    TITLE "0:"
    INDEX 01 03:11:35
  TRACK 146 AUDIO
    TITLE "28:cjc024_5332"
    INDEX 01 03:12:35
  TRACK 147 AUDIO
    TITLE "0:"
    INDEX 01 03:13:40
  TRACK 148 AUDIO
    TITLE "29:cjc024_5333"
    INDEX 01 03:14:02
  TRACK 149 AUDIO
    TITLE "0:"
    INDEX 01 03:16:11
  TRACK 150 AUDIO
    TITLE "30:cjc024_5334"
    INDEX 01 03:16:52
  TRACK 151 AUDIO
    TITLE "0:"
    INDEX 01 03:18:55
  TRACK 152 AUDIO
    TITLE "31:cjc024_5335"
    INDEX 01 03:19:05
  TRACK 153 AUDIO
    TITLE "0:"
    INDEX 01 03:21:10
  TRACK 154 AUDIO
    TITLE "28:cjc024_5336"
    INDEX 01 03:22:16
  TRACK 155 AUDIO
    TITLE "0:"
    INDEX 01 03:23:21
  TRACK 156 AUDIO
    TITLE "29:cjc024_5337"
    INDEX 01 03:23:58
  TRACK 157 AUDIO
    TITLE "0:"
    INDEX 01 03:25:24
  TRACK 158 AUDIO
    TITLE "30:cjc024_5338"
    INDEX 01 03:25:61
  TRACK 159 AUDIO
    TITLE "0:"
    INDEX 01 03:27:40
  TRACK 160 AUDIO
    TITLE "31:cjc024_5339"
    INDEX 01 03:27:66
  TRACK 161 AUDIO
    TITLE "0:"
    INDEX 01 03:29:45
  TRACK 162 AUDIO
    TITLE "28:cjc024_5340"
    INDEX 01 03:30:44
  TRACK 163 AUDIO
    TITLE "0:"
    INDEX 01 03:31:71
  TRACK 164 AUDIO
    TITLE "29:cjc024_5341"
    INDEX 01 03:32:36
  TRACK 165 AUDIO
    TITLE "0:"
    INDEX 01 03:34:38
  TRACK 166 AUDIO
    TITLE "30:cjc024_5342"
    INDEX 01 03:35:04
  TRACK 167 AUDIO
    TITLE "0:"
    INDEX 01 03:36:67
  TRACK 168 AUDIO
    TITLE "31:cjc024_5343"
    INDEX 01 03:37:23
  TRACK 169 AUDIO
    TITLE "0:"
    INDEX 01 03:39:06
  TRACK 170 AUDIO
    TITLE "28:cjc024_5344"
    INDEX 01 03:40:12
  TRACK 171 AUDIO
    TITLE "0:"
    INDEX 01 03:41:25
  TRACK 172 AUDIO
    TITLE "29:cjc024_5345"
    INDEX 01 03:41:62
  TRACK 173 AUDIO
    TITLE "0:"
    INDEX 01 03:43:65
  TRACK 174 AUDIO
    TITLE "30:cjc024_5346"
    INDEX 01 03:44:27
  TRACK 175 AUDIO
    TITLE "0:"
    INDEX 01 03:46:18
  TRACK 176 AUDIO
    TITLE "31:cjc024_5347"
    INDEX 01 03:46:42
  TRACK 177 AUDIO
    TITLE "0:"
    INDEX 01 03:48:35
  TRACK 178 AUDIO
    TITLE "28:cjc024_5348"
    INDEX 01 03:49:32
  TRACK 179 AUDIO
    TITLE "0:"
    INDEX 01 03:50:41
  TRACK 180 AUDIO
    TITLE "29:cjc024_5349"
    INDEX 01 03:51:03
  TRACK 181 AUDIO
    TITLE "0:"
    INDEX 01 03:52:30
  TRACK 182 AUDIO
    TITLE "30:cjc024_5350"
    INDEX 01 03:52:70
  TRACK 183 AUDIO
    TITLE "0:"
    INDEX 01 03:54:27
  TRACK 184 AUDIO
    TITLE "31:cjc024_5351"
    INDEX 01 03:54:61
  TRACK 185 AUDIO
    TITLE "0:"
    INDEX 01 03:56:16
  TRACK 186 AUDIO
    TITLE "28:cjc024_5352"
    INDEX 01 03:57:24
  TRACK 187 AUDIO
    TITLE "0:"
    INDEX 01 03:58:37
  TRACK 188 AUDIO
    TITLE "29:cjc024_5353"
    INDEX 01 03:59:03
  TRACK 189 AUDIO
    TITLE "0:"
    INDEX 01 04:02:70
  TRACK 190 AUDIO
    TITLE "30:cjc024_5354"
    INDEX 01 04:03:30
  TRACK 191 AUDIO
    TITLE "0:"
    INDEX 01 04:06:05
  TRACK 192 AUDIO
    TITLE "31:cjc024_5355"
    INDEX 01 04:06:29
  TRACK 193 AUDIO
    TITLE "0:"
    INDEX 01 04:09:01
  TRACK 194 AUDIO
    TITLE "28:cjc024_5356"
    INDEX 01 04:10:05
  TRACK 195 AUDIO
    TITLE "0:"
    INDEX 01 04:11:06
  TRACK 196 AUDIO
    TITLE "29:cjc024_5357"
    INDEX 01 04:11:45
  TRACK 197 AUDIO
    TITLE "0:"
    INDEX 01 04:13:01
  TRACK 198 AUDIO
    TITLE "30:cjc024_5358"
    INDEX 01 04:13:36
  TRACK 199 AUDIO
    TITLE "0:"
    INDEX 01 04:14:69
  TRACK 200 AUDIO
    TITLE "31:cjc024_5359"
    INDEX 01 04:15:16
  TRACK 201 AUDIO
    TITLE "0:"
    INDEX 01 04:16:48
  TRACK 202 AUDIO
    TITLE "28:cjc024_5360"
    INDEX 01 04:17:48
  TRACK 203 AUDIO
    TITLE "0:"
    INDEX 01 04:19:15
  TRACK 204 AUDIO
    TITLE "29:cjc024_5361"
    INDEX 01 04:19:61
  TRACK 205 AUDIO
    TITLE "0:"
    INDEX 01 04:22:41
  TRACK 206 AUDIO
    TITLE "30:cjc024_5362"
    INDEX 01 04:23:02
  TRACK 207 AUDIO
    TITLE "0:"
    INDEX 01 04:25:63
  TRACK 208 AUDIO
    TITLE "31:cjc024_5363"
    INDEX 01 04:26:14
  TRACK 209 AUDIO
    TITLE "0:"
    INDEX 01 04:28:73
  TRACK 210 AUDIO
    TITLE "28:cjc024_5364"
    INDEX 01 04:29:71
  TRACK 211 AUDIO
    TITLE "0:"
    INDEX 01 04:31:07
  TRACK 212 AUDIO
    TITLE "29:cjc024_5365"
    INDEX 01 04:31:42
  TRACK 213 AUDIO
    TITLE "0:"
    INDEX 01 04:34:13
  TRACK 214 AUDIO
    TITLE "30:cjc024_5366"
    INDEX 01 04:34:50
  TRACK 215 AUDIO
    TITLE "0:"
    INDEX 01 04:36:32
  TRACK 216 AUDIO
    TITLE "31:cjc024_5367"
    INDEX 01 04:36:53
  TRACK 217 AUDIO
    TITLE "0:"
    INDEX 01 04:38:32
  TRACK 218 AUDIO
    TITLE "28:cjc024_5368"
    INDEX 01 04:39:30
  TRACK 219 AUDIO
    TITLE "0:"
    INDEX 01 04:40:25
  TRACK 220 AUDIO
    TITLE "29:cjc024_5369"
    INDEX 01 04:40:67
  TRACK 221 AUDIO
    TITLE "0:"
    INDEX 01 04:42:48
  TRACK 222 AUDIO
    TITLE "30:cjc024_5370"
    INDEX 01 04:43:10
  TRACK 223 AUDIO
    TITLE "0:"
    INDEX 01 04:45:13
  TRACK 224 AUDIO
    TITLE "31:cjc024_5371"
    INDEX 01 04:45:38
  TRACK 225 AUDIO
    TITLE "0:"
    INDEX 01 04:47:39
  TRACK 226 AUDIO
    TITLE "28:cjc024_5372"
    INDEX 01 04:48:43
  TRACK 227 AUDIO
    TITLE "0:"
    INDEX 01 04:49:52
  TRACK 228 AUDIO
    TITLE "29:cjc024_5373"
    INDEX 01 04:50:12
  TRACK 229 AUDIO
    TITLE "0:"
    INDEX 01 04:52:13
  TRACK 230 AUDIO
    TITLE "30:cjc024_5374"
    INDEX 01 04:52:50
  TRACK 231 AUDIO
    TITLE "0:"
    INDEX 01 04:54:28
  TRACK 232 AUDIO
    TITLE "31:cjc024_5375"
    INDEX 01 04:54:59
  TRACK 233 AUDIO
    TITLE "0:"
    INDEX 01 04:56:34
  TRACK 234 AUDIO
    TITLE "28:cjc024_5376"
    INDEX 01 04:57:44
  TRACK 235 AUDIO
    TITLE "0:"
    INDEX 01 04:58:53
  TRACK 236 AUDIO
    TITLE "29:cjc024_5377"
    INDEX 01 04:59:19
  TRACK 237 AUDIO
    TITLE "0:"
    INDEX 01 05:02:09
  TRACK 238 AUDIO
    TITLE "30:cjc024_5378"
    INDEX 01 05:02:51
  TRACK 239 AUDIO
    TITLE "0:"
    INDEX 01 05:05:25
  TRACK 240 AUDIO
    TITLE "31:cjc024_5379"
    INDEX 01 05:05:51
  TRACK 241 AUDIO
    TITLE "0:"
    INDEX 01 05:08:30
  TRACK 242 AUDIO
    TITLE "28:cjc024_5380"
    INDEX 01 05:09:27
  TRACK 243 AUDIO
    TITLE "0:"
    INDEX 01 05:10:58
  TRACK 244 AUDIO
    TITLE "29:cjc024_5381"
    INDEX 01 05:11:20
  TRACK 245 AUDIO
    TITLE "0:"
    INDEX 01 05:13:11
  TRACK 246 AUDIO
    TITLE "30:cjc024_5382"
    INDEX 01 05:13:48
  TRACK 247 AUDIO
    TITLE "0:"
    INDEX 01 05:15:36
  TRACK 248 AUDIO
    TITLE "31:cjc024_5383"
    INDEX 01 05:15:61
  TRACK 249 AUDIO
    TITLE "0:"
    INDEX 01 05:17:46
  TRACK 250 AUDIO
    TITLE "28:cjc024_5384"
    INDEX 01 05:18:50
  TRACK 251 AUDIO
    TITLE "0:"
    INDEX 01 05:19:61
  TRACK 252 AUDIO
    TITLE "29:cjc024_5385"
    INDEX 01 05:20:27
  TRACK 253 AUDIO
    TITLE "0:"
    INDEX 01 05:23:33
  TRACK 254 AUDIO
    TITLE "30:cjc024_5386"
    INDEX 01 05:23:68
  TRACK 255 AUDIO
    TITLE "0:"
    INDEX 01 05:25:59
  TRACK 256 AUDIO
    TITLE "31:cjc024_5387"
    INDEX 01 05:26:10
  TRACK 257 AUDIO
    TITLE "0:"
    INDEX 01 05:28:03
  TRACK 258 AUDIO
    TITLE "28:cjc024_5388"
    INDEX 01 05:29:02
  TRACK 259 AUDIO
    TITLE "0:"
    INDEX 01 05:30:00
  TRACK 260 AUDIO
    TITLE "29:cjc024_5389"
    INDEX 01 05:30:41
  TRACK 261 AUDIO
    TITLE "0:"
    INDEX 01 05:32:05
  TRACK 262 AUDIO
    TITLE "30:cjc024_5390"
    INDEX 01 05:32:44
  TRACK 263 AUDIO
    TITLE "0:"
    INDEX 01 05:34:47
  TRACK 264 AUDIO
    TITLE "31:cjc024_5391"
    INDEX 01 05:34:70
  TRACK 265 AUDIO
    TITLE "0:"
    INDEX 01 05:36:73
  TRACK 266 AUDIO
    TITLE "28:cjc024_5392"
    INDEX 01 05:37:72
  TRACK 267 AUDIO
    TITLE "0:"
    INDEX 01 05:39:20
  TRACK 268 AUDIO
    TITLE "29:cjc024_5393"
    INDEX 01 05:39:62
  TRACK 269 AUDIO
    TITLE "0:"
    INDEX 01 05:42:44
  TRACK 270 AUDIO
    TITLE "30:cjc024_5394"
    INDEX 01 05:43:12
  TRACK 271 AUDIO
    TITLE "0:"
    INDEX 01 05:45:33
  TRACK 272 AUDIO
    TITLE "31:cjc024_5395"
    INDEX 01 05:45:62
  TRACK 273 AUDIO
    TITLE "0:"
    INDEX 01 05:48:10
  TRACK 274 AUDIO
    TITLE "28:cjc024_5396"
    INDEX 01 05:49:09
  TRACK 275 AUDIO
    TITLE "0:"
    INDEX 01 05:50:22
  TRACK 276 AUDIO
    TITLE "29:cjc024_5397"
    INDEX 01 05:50:59
  TRACK 277 AUDIO
    TITLE "0:"
    INDEX 01 05:53:38
  TRACK 278 AUDIO
    TITLE "30:cjc024_5398"
    INDEX 01 05:54:00
  TRACK 279 AUDIO
    TITLE "0:"
    INDEX 01 05:56:35
  TRACK 280 AUDIO
    TITLE "31:cjc024_5399"
    INDEX 01 05:56:56
  TRACK 281 AUDIO
    TITLE "0:"
    INDEX 01 05:59:11
  TRACK 282 AUDIO
    TITLE "28:cjc024_5400"
    INDEX 01 06:00:11
  TRACK 283 AUDIO
    TITLE "0:"
    INDEX 01 06:01:14
  TRACK 284 AUDIO
    TITLE "29:cjc024_5401"
    INDEX 01 06:01:55
  TRACK 285 AUDIO
    TITLE "0:"
    INDEX 01 06:05:18
  TRACK 286 AUDIO
    TITLE "30:cjc024_5402"
    INDEX 01 06:05:53
  TRACK 287 AUDIO
    TITLE "0:"
    INDEX 01 06:08:67
  TRACK 288 AUDIO
    TITLE "31:cjc024_5403"
    INDEX 01 06:09:18
  TRACK 289 AUDIO
    TITLE "0:"
    INDEX 01 06:12:32
  TRACK 290 AUDIO
    TITLE "28:cjc024_5404"
    INDEX 01 06:13:27
  TRACK 291 AUDIO
    TITLE "0:"
    INDEX 01 06:14:36
  TRACK 292 AUDIO
    TITLE "29:cjc024_5405"
    INDEX 01 06:15:03
  TRACK 293 AUDIO
    TITLE "0:"
    INDEX 01 06:16:49
  TRACK 294 AUDIO
    TITLE "30:cjc024_5406"
    INDEX 01 06:17:15
  TRACK 295 AUDIO
    TITLE "0:"
    INDEX 01 06:18:58
  TRACK 296 AUDIO
    TITLE "31:cjc024_5407"
    INDEX 01 06:19:10
  TRACK 297 AUDIO
    TITLE "0:"
    INDEX 01 06:20:53
  TRACK 298 AUDIO
    TITLE "28:cjc024_5408"
    INDEX 01 06:21:52
  TRACK 299 AUDIO
    TITLE "0:"
    INDEX 01 06:22:52
  TRACK 300 AUDIO
    TITLE "29:cjc024_5409"
    INDEX 01 06:23:12
  TRACK 301 AUDIO
    TITLE "0:"
    INDEX 01 06:25:73
  TRACK 302 AUDIO
    TITLE "30:cjc024_5410"
    INDEX 01 06:26:34
  TRACK 303 AUDIO
    TITLE "0:"
    INDEX 01 06:29:05
  TRACK 304 AUDIO
    TITLE "31:cjc024_5411"
    INDEX 01 06:29:24
  TRACK 305 AUDIO
    TITLE "0:"
    INDEX 01 06:31:70
  TRACK 306 AUDIO
    TITLE "28:cjc024_5412"
    INDEX 01 06:32:72
  TRACK 307 AUDIO
    TITLE "0:"
    INDEX 01 06:34:14
  TRACK 308 AUDIO
    TITLE "29:cjc024_5413"
    INDEX 01 06:34:49
  TRACK 309 AUDIO
    TITLE "0:"
    INDEX 01 06:36:44
  TRACK 310 AUDIO
    TITLE "30:cjc024_5414"
    INDEX 01 06:37:08
  TRACK 311 AUDIO
    TITLE "0:"
    INDEX 01 06:38:70
  TRACK 312 AUDIO
    TITLE "31:cjc024_5415"
    INDEX 01 06:39:23
  TRACK 313 AUDIO
    TITLE "0:"
    INDEX 01 06:41:06
  TRACK 314 AUDIO
    TITLE "28:cjc024_5416"
    INDEX 01 06:42:07
  TRACK 315 AUDIO
    TITLE "0:"
    INDEX 01 06:43:20
  TRACK 316 AUDIO
    TITLE "29:cjc024_5417"
    INDEX 01 06:43:60
  TRACK 317 AUDIO
    TITLE "0:"
    INDEX 01 06:45:35
  TRACK 318 AUDIO
    TITLE "30:cjc024_5418"
    INDEX 01 06:45:70
  TRACK 319 AUDIO
    TITLE "0:"
    INDEX 01 06:47:46
  TRACK 320 AUDIO
    TITLE "31:cjc024_5419"
    INDEX 01 06:47:69
  TRACK 321 AUDIO
    TITLE "0:"
    INDEX 01 06:49:43
  TRACK 322 AUDIO
    TITLE "28:cjc024_5420"
    INDEX 01 06:50:40
  TRACK 323 AUDIO
    TITLE "0:"
    INDEX 01 06:52:06
  TRACK 324 AUDIO
    TITLE "29:cjc024_5421"
    INDEX 01 06:52:57
  TRACK 325 AUDIO
    TITLE "0:"
    INDEX 01 06:55:27
  TRACK 326 AUDIO
    TITLE "30:cjc024_5422"
    INDEX 01 06:55:61
  TRACK 327 AUDIO
    TITLE "0:"
    INDEX 01 06:58:40
  TRACK 328 AUDIO
    TITLE "31:cjc024_5423"
    INDEX 01 06:58:61
  TRACK 329 AUDIO
    TITLE "0:"
    INDEX 01 07:01:38
  TRACK 330 AUDIO
    TITLE "28:cjc024_5424"
    INDEX 01 07:02:37
  TRACK 331 AUDIO
    TITLE "0:"
    INDEX 01 07:03:52
  TRACK 332 AUDIO
    TITLE "29:cjc024_5425"
    INDEX 01 07:04:17
  TRACK 333 AUDIO
    TITLE "0:"
    INDEX 01 07:05:63
  TRACK 334 AUDIO
    TITLE "30:cjc024_5426"
    INDEX 01 07:06:31
  TRACK 335 AUDIO
    TITLE "0:"
    INDEX 01 07:08:11
  TRACK 336 AUDIO
    TITLE "31:cjc024_5427"
    INDEX 01 07:08:40
  TRACK 337 AUDIO
    TITLE "0:"
    INDEX 01 07:10:19
  TRACK 338 AUDIO
    TITLE "28:cjc024_5428"
    INDEX 01 07:11:32
  TRACK 339 AUDIO
    TITLE "0:"
    INDEX 01 07:12:48
  TRACK 340 AUDIO
    TITLE "29:cjc024_5429"
    INDEX 01 07:13:12
  TRACK 341 AUDIO
    TITLE "0:"
    INDEX 01 07:16:49
  TRACK 342 AUDIO
    TITLE "30:cjc024_5430"
    INDEX 01 07:17:11
  TRACK 343 AUDIO
    TITLE "0:"
    INDEX 01 07:19:61
  TRACK 344 AUDIO
    TITLE "31:cjc024_5431"
    INDEX 01 07:20:16
  TRACK 345 AUDIO
    TITLE "0:"
    INDEX 01 07:22:66
  TRACK 346 AUDIO
    TITLE "28:cjc024_5432"
    INDEX 01 07:23:67
  TRACK 347 AUDIO
    TITLE "0:"
    INDEX 01 07:25:13
  TRACK 348 AUDIO
    TITLE "29:cjc024_5433"
    INDEX 01 07:25:50
  TRACK 349 AUDIO
    TITLE "0:"
    INDEX 01 07:28:33
  TRACK 350 AUDIO
    TITLE "30:cjc024_5434"
    INDEX 01 07:28:70
  TRACK 351 AUDIO
    TITLE "0:"
    INDEX 01 07:31:74
  TRACK 352 AUDIO
    TITLE "31:cjc024_5435"
    INDEX 01 07:32:27
  TRACK 353 AUDIO
    TITLE "0:"
    INDEX 01 07:35:31
  TRACK 354 AUDIO
    TITLE "28:cjc024_5436"
    INDEX 01 07:36:32
  TRACK 355 AUDIO
    TITLE "0:"
    INDEX 01 07:37:38
  TRACK 356 AUDIO
    TITLE "29:cjc024_5437"
    INDEX 01 07:37:73
  TRACK 357 AUDIO
    TITLE "0:"
    INDEX 01 07:40:18
  TRACK 358 AUDIO
    TITLE "30:cjc024_5438"
    INDEX 01 07:40:58
  TRACK 359 AUDIO
    TITLE "0:"
    INDEX 01 07:42:68
  TRACK 360 AUDIO
    TITLE "31:cjc024_5439"
    INDEX 01 07:43:21
  TRACK 361 AUDIO
    TITLE "0:"
    INDEX 01 07:45:29
  TRACK 362 AUDIO
    TITLE "28:cjc024_5440"
    INDEX 01 07:46:35
  TRACK 363 AUDIO
    TITLE "0:"
    INDEX 01 07:47:48
  TRACK 364 AUDIO
    TITLE "29:cjc024_5441"
    INDEX 01 07:48:12
  TRACK 365 AUDIO
    TITLE "0:"
    INDEX 01 07:49:60
  TRACK 366 AUDIO
    TITLE "30:cjc024_5442"
    INDEX 01 07:50:23
  TRACK 367 AUDIO
    TITLE "0:"
    INDEX 01 07:52:14
  TRACK 368 AUDIO
    TITLE "31:cjc024_5443"
    INDEX 01 07:52:33
  TRACK 369 AUDIO
    TITLE "0:"
    INDEX 01 07:54:24
  TRACK 370 AUDIO
    TITLE "28:cjc024_5444"
    INDEX 01 07:55:24
  TRACK 371 AUDIO
    TITLE "0:"
    INDEX 01 07:56:31
  TRACK 372 AUDIO
    TITLE "29:cjc024_5445"
    INDEX 01 07:56:68
  TRACK 373 AUDIO
    TITLE "0:"
    INDEX 01 07:58:48
  TRACK 374 AUDIO
    TITLE "30:cjc024_5446"
    INDEX 01 07:59:08
  TRACK 375 AUDIO
    TITLE "0:"
    INDEX 01 08:00:47
  TRACK 376 AUDIO
    TITLE "31:cjc024_5447"
    INDEX 01 08:00:68
  TRACK 377 AUDIO
    TITLE "0:"
    INDEX 01 08:02:32
  TRACK 378 AUDIO
    TITLE "28:cjc024_5448"
    INDEX 01 08:03:27
  TRACK 379 AUDIO
    TITLE "0:"
    INDEX 01 08:04:27
  TRACK 380 AUDIO
    TITLE "29:cjc024_5449"
    INDEX 01 08:04:64
  TRACK 381 AUDIO
    TITLE "0:"
    INDEX 01 08:08:15
  TRACK 382 AUDIO
    TITLE "30:cjc024_5450"
    INDEX 01 08:08:56
  TRACK 383 AUDIO
    TITLE "0:"
    INDEX 01 08:11:52
  TRACK 384 AUDIO
    TITLE "31:cjc024_5451"
    INDEX 01 08:12:07
  TRACK 385 AUDIO
    TITLE "0:"
    INDEX 01 08:15:01
  TRACK 386 AUDIO
    TITLE "28:cjc024_5452"
    INDEX 01 08:16:00
  TRACK 387 AUDIO
    TITLE "0:"
    INDEX 01 08:17:02
  TRACK 388 AUDIO
    TITLE "29:cjc024_5453"
    INDEX 01 08:17:37
  TRACK 389 AUDIO
    TITLE "0:"
    INDEX 01 08:19:05
  TRACK 390 AUDIO
    TITLE "30:cjc024_5454"
    INDEX 01 08:19:40
  TRACK 391 AUDIO
    TITLE "0:"
    INDEX 01 08:21:19
  TRACK 392 AUDIO
    TITLE "31:cjc024_5455"
    INDEX 01 08:21:45
  TRACK 393 AUDIO
    TITLE "0:"
    INDEX 01 08:23:22
  TRACK 394 AUDIO
    TITLE "28:cjc024_5456"
    INDEX 01 08:24:24
  TRACK 395 AUDIO
    TITLE "0:"
    INDEX 01 08:25:35
  TRACK 396 AUDIO
    TITLE "29:cjc024_5457"
    INDEX 01 08:25:72
  TRACK 397 AUDIO
    TITLE "0:"
    INDEX 01 08:28:04
  TRACK 398 AUDIO
    TITLE "30:cjc024_5458"
    INDEX 01 08:28:41
  TRACK 399 AUDIO
    TITLE "0:"
    INDEX 01 08:30:42
  TRACK 400 AUDIO
    TITLE "31:cjc024_5459"
    INDEX 01 08:30:65
  TRACK 401 AUDIO
    TITLE "0:"
    INDEX 01 08:32:66
  TRACK 402 AUDIO
    TITLE "28:cjc024_5460"
    INDEX 01 08:33:68
  TRACK 403 AUDIO
    TITLE "0:"
    INDEX 01 08:34:73
  TRACK 404 AUDIO
    TITLE "29:cjc024_5461"
    INDEX 01 08:35:45
  TRACK 405 AUDIO
    TITLE "0:"
    INDEX 01 08:37:67
  TRACK 406 AUDIO
    TITLE "30:cjc024_5462"
    INDEX 01 08:38:30
  TRACK 407 AUDIO
    TITLE "0:"
    INDEX 01 08:39:70
  TRACK 408 AUDIO
    TITLE "31:cjc024_5463"
    INDEX 01 08:40:24
  TRACK 409 AUDIO
    TITLE "0:"
    INDEX 01 08:41:65
  TRACK 410 AUDIO
    TITLE "28:cjc024_5464"
    INDEX 01 08:42:70
  TRACK 411 AUDIO
    TITLE "0:"
    INDEX 01 08:44:05
  TRACK 412 AUDIO
    TITLE "29:cjc024_5465"
    INDEX 01 08:44:42
  TRACK 413 AUDIO
    TITLE "0:"
    INDEX 01 08:46:72
  TRACK 414 AUDIO
    TITLE "30:cjc024_5466"
    INDEX 01 08:47:34
  TRACK 415 AUDIO
    TITLE "0:"
    INDEX 01 08:49:41
  TRACK 416 AUDIO
    TITLE "31:cjc024_5467"
    INDEX 01 08:49:68
  TRACK 417 AUDIO
    TITLE "0:"
    INDEX 01 08:51:73
  TRACK 418 AUDIO
    TITLE "28:cjc024_5468"
    INDEX 01 08:53:02
  TRACK 419 AUDIO
    TITLE "0:"
    INDEX 01 08:54:09
  TRACK 420 AUDIO
    TITLE "29:cjc024_5469"
    INDEX 01 08:54:46
  TRACK 421 AUDIO
    TITLE "0:"
    INDEX 01 08:57:07
  TRACK 422 AUDIO
    TITLE "30:cjc024_5470"
    INDEX 01 08:57:46
  TRACK 423 AUDIO
    TITLE "0:"
    INDEX 01 09:00:04
  TRACK 424 AUDIO
    TITLE "31:cjc024_5471"
    INDEX 01 09:00:25
  TRACK 425 AUDIO
    TITLE "0:"
    INDEX 01 09:02:55
  TRACK 426 AUDIO
    TITLE "28:cjc024_5472"
    INDEX 01 09:03:55
  TRACK 427 AUDIO
    TITLE "0:"
    INDEX 01 09:04:58
  TRACK 428 AUDIO
    TITLE "29:cjc024_5473"
    INDEX 01 09:05:22
  TRACK 429 AUDIO
    TITLE "0:"
    INDEX 01 09:07:02
  TRACK 430 AUDIO
    TITLE "30:cjc024_5474"
    INDEX 01 09:07:41
  TRACK 431 AUDIO
    TITLE "0:"
    INDEX 01 09:09:12
  TRACK 432 AUDIO
    TITLE "31:cjc024_5475"
    INDEX 01 09:09:38
  TRACK 433 AUDIO
    TITLE "0:"
    INDEX 01 09:11:09
  TRACK 434 AUDIO
    TITLE "28:cjc024_5476"
    INDEX 01 09:12:13
  TRACK 435 AUDIO
    TITLE "0:"
    INDEX 01 09:13:16
  TRACK 436 AUDIO
    TITLE "29:cjc024_5477"
    INDEX 01 09:13:53
  TRACK 437 AUDIO
    TITLE "0:"
    INDEX 01 09:16:32
  TRACK 438 AUDIO
    TITLE "30:cjc024_5478"
    INDEX 01 09:16:67
  TRACK 439 AUDIO
    TITLE "0:"
    INDEX 01 09:18:54
  TRACK 440 AUDIO
    TITLE "31:cjc024_5479"
    INDEX 01 09:19:03
  TRACK 441 AUDIO
    TITLE "0:"
    INDEX 01 09:20:63
  TRACK 442 AUDIO
    TITLE "28:cjc024_5480"
    INDEX 01 09:21:65
  TRACK 443 AUDIO
    TITLE "0:"
    INDEX 01 09:23:15
  TRACK 444 AUDIO
    TITLE "29:cjc024_5481"
    INDEX 01 09:23:54
  TRACK 445 AUDIO
    TITLE "0:"
    INDEX 01 09:27:08
  TRACK 446 AUDIO
    TITLE "30:cjc024_5482"
    INDEX 01 09:27:48
  TRACK 447 AUDIO
    TITLE "0:"
    INDEX 01 09:29:74
  TRACK 448 AUDIO
    TITLE "31:cjc024_5483"
    INDEX 01 09:30:22
  TRACK 449 AUDIO
    TITLE "0:"
    INDEX 01 09:32:53
  TRACK 450 AUDIO
    TITLE "28:cjc024_5484"
    INDEX 01 09:33:50
  TRACK 451 AUDIO
    TITLE "0:"
    INDEX 01 09:34:57
  TRACK 452 AUDIO
    TITLE "29:cjc024_5485"
    INDEX 01 09:35:22
  TRACK 453 AUDIO
    TITLE "0:"
    INDEX 01 09:39:29
  TRACK 454 AUDIO
    TITLE "30:cjc024_5486"
    INDEX 01 09:39:63
  TRACK 455 AUDIO
    TITLE "0:"
    INDEX 01 09:42:26
  TRACK 456 AUDIO
    TITLE "31:cjc024_5487"
    INDEX 01 09:42:47
  TRACK 457 AUDIO
    TITLE "0:"
    INDEX 01 09:45:08
  TRACK 458 AUDIO
    TITLE "28:cjc024_5488"
    INDEX 01 09:46:10
  TRACK 459 AUDIO
    TITLE "0:"
    INDEX 01 09:47:33
  TRACK 460 AUDIO
    TITLE "29:cjc024_5489"
    INDEX 01 09:47:68
  TRACK 461 AUDIO
    TITLE "0:"
    INDEX 01 09:49:61
  TRACK 462 AUDIO
    TITLE "30:cjc024_5490"
    INDEX 01 09:50:23
  TRACK 463 AUDIO
    TITLE "0:"
    INDEX 01 09:52:00
  TRACK 464 AUDIO
    TITLE "31:cjc024_5491"
    INDEX 01 09:52:26
  TRACK 465 AUDIO
    TITLE "0:"
    INDEX 01 09:54:03
  TRACK 466 AUDIO
    TITLE "28:cjc024_5492"
    INDEX 01 09:55:05
  TRACK 467 AUDIO
    TITLE "0:"
    INDEX 01 09:56:14
  TRACK 468 AUDIO
    TITLE "29:cjc024_5493"
    INDEX 01 09:56:49
  TRACK 469 AUDIO
    TITLE "0:"
    INDEX 01 09:59:48
  TRACK 470 AUDIO
    TITLE "30:cjc024_5494"
    INDEX 01 10:00:10
  TRACK 471 AUDIO
    TITLE "0:"
    INDEX 01 10:02:60
  TRACK 472 AUDIO
    TITLE "31:cjc024_5495"
    INDEX 01 10:03:08
  TRACK 473 AUDIO
    TITLE "0:"
    INDEX 01 10:05:58
  TRACK 474 AUDIO
    TITLE "28:cjc024_5496"
    INDEX 01 10:06:59
  TRACK 475 AUDIO
    TITLE "0:"
    INDEX 01 10:08:00
  TRACK 476 AUDIO
    TITLE "29:cjc024_5497"
    INDEX 01 10:08:37
  TRACK 477 AUDIO
    TITLE "0:"
    INDEX 01 10:10:59
  TRACK 478 AUDIO
    TITLE "30:cjc024_5498"
    INDEX 01 10:11:19
  TRACK 479 AUDIO
    TITLE "0:"
    INDEX 01 10:14:00
  TRACK 480 AUDIO
    TITLE "31:cjc024_5499"
    INDEX 01 10:14:30
  TRACK 481 AUDIO
    TITLE "0:"
    INDEX 01 10:17:08
  TRACK 482 AUDIO
    TITLE "28:cjc024_5500"
    INDEX 01 10:18:12
  TRACK 483 AUDIO
    TITLE "0:"
    INDEX 01 10:19:37
  TRACK 484 AUDIO
    TITLE "29:cjc024_5501"
    INDEX 01 10:19:74
  TRACK 485 AUDIO
    TITLE "0:"
    INDEX 01 10:22:37
  TRACK 486 AUDIO
    TITLE "30:cjc024_5502"
    INDEX 01 10:22:72
  TRACK 487 AUDIO
    TITLE "0:"
    INDEX 01 10:24:51
  TRACK 488 AUDIO
    TITLE "31:cjc024_5503"
    INDEX 01 10:25:12
  TRACK 489 AUDIO
    TITLE "0:"
    INDEX 01 10:26:64
  TRACK 490 AUDIO
    TITLE "28:cjc024_5504"
    INDEX 01 10:27:73
  TRACK 491 AUDIO
    TITLE "0:"
    INDEX 01 10:29:09
  TRACK 492 AUDIO
    TITLE "29:cjc024_5505"
    INDEX 01 10:29:53
  TRACK 493 AUDIO
    TITLE "0:"
    INDEX 01 10:32:71
  TRACK 494 AUDIO
    TITLE "30:cjc024_5506"
    INDEX 01 10:33:35
  TRACK 495 AUDIO
    TITLE "0:"
    INDEX 01 10:36:10
  TRACK 496 AUDIO
    TITLE "31:cjc024_5507"
    INDEX 01 10:36:31
  TRACK 497 AUDIO
    TITLE "0:"
    INDEX 01 10:39:04
  TRACK 498 AUDIO
    TITLE "28:cjc024_5508"
    INDEX 01 10:40:03
  TRACK 499 AUDIO
    TITLE "0:"
    INDEX 01 10:41:21
  TRACK 500 AUDIO
    TITLE "29:cjc024_5509"
    INDEX 01 10:41:64
  TRACK 501 AUDIO
    TITLE "0:"
    INDEX 01 10:44:72
  TRACK 502 AUDIO
    TITLE "30:cjc024_5510"
    INDEX 01 10:45:40
  TRACK 503 AUDIO
    TITLE "0:"
    INDEX 01 10:48:21
  TRACK 504 AUDIO
    TITLE "31:cjc024_5511"
    INDEX 01 10:48:46
  TRACK 505 AUDIO
    TITLE "0:"
    INDEX 01 10:51:27
  TRACK 506 AUDIO
    TITLE "28:cjc024_5512"
    INDEX 01 10:52:30
  TRACK 507 AUDIO
    TITLE "0:"
    INDEX 01 10:53:30
  TRACK 508 AUDIO
    TITLE "29:cjc024_5513"
    INDEX 01 10:53:69
  TRACK 509 AUDIO
    TITLE "0:"
    INDEX 01 10:56:71
  TRACK 510 AUDIO
    TITLE "30:cjc024_5514"
    INDEX 01 10:57:35
  TRACK 511 AUDIO
    TITLE "0:"
    INDEX 01 10:59:58
  TRACK 512 AUDIO
    TITLE "31:cjc024_5515"
    INDEX 01 11:00:08
  TRACK 513 AUDIO
    TITLE "0:"
    INDEX 01 11:02:29
  TRACK 514 AUDIO
    TITLE "28:cjc024_5516"
    INDEX 01 11:03:36
  TRACK 515 AUDIO
    TITLE "0:"
    INDEX 01 11:04:37
  TRACK 516 AUDIO
    TITLE "29:cjc024_5517"
    INDEX 01 11:05:01
  TRACK 517 AUDIO
    TITLE "0:"
    INDEX 01 11:08:06
  TRACK 518 AUDIO
    TITLE "30:cjc024_5518"
    INDEX 01 11:08:47
  TRACK 519 AUDIO
    TITLE "0:"
    INDEX 01 11:12:03
  TRACK 520 AUDIO
    TITLE "31:cjc024_5519"
    INDEX 01 11:12:41
  TRACK 521 AUDIO
    TITLE "0:"
    INDEX 01 11:15:70
  TRACK 522 AUDIO
    TITLE "28:cjc024_5520"
    INDEX 01 11:17:01
  TRACK 523 AUDIO
    TITLE "0:"
    INDEX 01 11:18:18
  TRACK 524 AUDIO
    TITLE "29:cjc024_5521"
    INDEX 01 11:18:53
  TRACK 525 AUDIO
    TITLE "0:"
    INDEX 01 11:20:72
  TRACK 526 AUDIO
    TITLE "30:cjc024_5522"
    INDEX 01 11:21:38
  TRACK 527 AUDIO
    TITLE "0:"
    INDEX 01 11:23:37
  TRACK 528 AUDIO
    TITLE "31:cjc024_5523"
    INDEX 01 11:23:60
  TRACK 529 AUDIO
    TITLE "0:"
    INDEX 01 11:25:59
  TRACK 530 AUDIO
    TITLE "28:cjc024_5524"
    INDEX 01 11:26:60
  TRACK 531 AUDIO
    TITLE "0:"
    INDEX 01 11:27:64
  TRACK 532 AUDIO
    TITLE "29:cjc024_5525"
    INDEX 01 11:28:30
  TRACK 533 AUDIO
    TITLE "0:"
    INDEX 01 11:30:01
  TRACK 534 AUDIO
    TITLE "30:cjc024_5526"
    INDEX 01 11:30:42
  TRACK 535 AUDIO
    TITLE "0:"
    INDEX 01 11:32:43
  TRACK 536 AUDIO
    TITLE "31:cjc024_5527"
    INDEX 01 11:33:00
  TRACK 537 AUDIO
    TITLE "0:"
    INDEX 01 11:35:01
  TRACK 538 AUDIO
    TITLE "28:cjc024_5528"
    INDEX 01 11:35:73
  TRACK 539 AUDIO
    TITLE "0:"
    INDEX 01 11:36:74
  TRACK 540 AUDIO
    TITLE "29:cjc024_5529"
    INDEX 01 11:37:50
  TRACK 541 AUDIO
    TITLE "0:"
    INDEX 01 11:40:55
  TRACK 542 AUDIO
    TITLE "30:cjc024_5530"
    INDEX 01 11:41:15
  TRACK 543 AUDIO
    TITLE "0:"
    INDEX 01 11:43:57
  TRACK 544 AUDIO
    TITLE "31:cjc024_5531"
    INDEX 01 11:44:05
  TRACK 545 AUDIO
    TITLE "0:"
    INDEX 01 11:46:47
  TRACK 546 AUDIO
    TITLE "28:cjc024_5532"
    INDEX 01 11:47:49
  TRACK 547 AUDIO
    TITLE "0:"
    INDEX 01 11:48:68
  TRACK 548 AUDIO
    TITLE "29:cjc024_5533"
    INDEX 01 11:49:40
  TRACK 549 AUDIO
    TITLE "0:"
    INDEX 01 11:51:25
  TRACK 550 AUDIO
    TITLE "30:cjc024_5534"
    INDEX 01 11:51:62
  TRACK 551 AUDIO
    TITLE "0:"
    INDEX 01 11:54:02
  TRACK 552 AUDIO
    TITLE "31:cjc024_5535"
    INDEX 01 11:54:23
  TRACK 553 AUDIO
    TITLE "0:"
    INDEX 01 11:56:34
  TRACK 554 AUDIO
    TITLE "28:cjc024_5536"
    INDEX 01 11:57:33
  TRACK 555 AUDIO
    TITLE "0:"
    INDEX 01 11:58:47
  TRACK 556 AUDIO
    TITLE "29:cjc024_5537"
    INDEX 01 11:59:11
  TRACK 557 AUDIO
    TITLE "0:"
    INDEX 01 12:00:63
  TRACK 558 AUDIO
    TITLE "30:cjc024_5538"
    INDEX 01 12:01:21
  TRACK 559 AUDIO
    TITLE "0:"
    INDEX 01 12:03:09
  TRACK 560 AUDIO
    TITLE "31:cjc024_5539"
    INDEX 01 12:03:32
  TRACK 561 AUDIO
    TITLE "0:"
    INDEX 01 12:05:09
  TRACK 562 AUDIO
    TITLE "28:cjc024_5540"
    INDEX 01 12:06:23
  TRACK 563 AUDIO
    TITLE "0:"
    INDEX 01 12:07:32
  TRACK 564 AUDIO
    TITLE "29:cjc024_5541"
    INDEX 01 12:07:69
  TRACK 565 AUDIO
    TITLE "0:"
    INDEX 01 12:09:19
  TRACK 566 AUDIO
    TITLE "30:cjc024_5542"
    INDEX 01 12:09:58
  TRACK 567 AUDIO
    TITLE "0:"
    INDEX 01 12:11:34
  TRACK 568 AUDIO
    TITLE "31:cjc024_5543"
    INDEX 01 12:11:55
  TRACK 569 AUDIO
    TITLE "0:"
    INDEX 01 12:13:31
  TRACK 570 AUDIO
    TITLE "28:cjc024_5544"
    INDEX 01 12:14:28
  TRACK 571 AUDIO
    TITLE "0:"
    INDEX 01 12:15:33
  TRACK 572 AUDIO
    TITLE "29:cjc024_5545"
    INDEX 01 12:16:00
  TRACK 573 AUDIO
    TITLE "0:"
    INDEX 01 12:18:34
  TRACK 574 AUDIO
    TITLE "30:cjc024_5546"
    INDEX 01 12:18:73
  TRACK 575 AUDIO
    TITLE "0:"
    INDEX 01 12:21:12
  TRACK 576 AUDIO
    TITLE "31:cjc024_5547"
    INDEX 01 12:21:40
  TRACK 577 AUDIO
    TITLE "0:"
    INDEX 01 12:23:56
  TRACK 578 AUDIO
    TITLE "28:cjc024_5548"
    INDEX 01 12:24:58
  TRACK 579 AUDIO
    TITLE "0:"
    INDEX 01 12:25:69
  TRACK 580 AUDIO
    TITLE "29:cjc024_5549"
    INDEX 01 12:26:31
  TRACK 581 AUDIO
    TITLE "0:"
    INDEX 01 12:29:08
  TRACK 582 AUDIO
    TITLE "30:cjc024_5550"
    INDEX 01 12:29:45
  TRACK 583 AUDIO
    TITLE "0:"
    INDEX 01 12:31:60
  TRACK 584 AUDIO
    TITLE "31:cjc024_5551"
    INDEX 01 12:32:08
  TRACK 585 AUDIO
    TITLE "0:"
    INDEX 01 12:34:23
  TRACK 586 AUDIO
    TITLE "28:cjc024_5552"
    INDEX 01 12:35:20
  TRACK 587 AUDIO
    TITLE "0:"
    INDEX 01 12:36:22
  TRACK 588 AUDIO
    TITLE "29:cjc024_5553"
    INDEX 01 12:36:63
  TRACK 589 AUDIO
    TITLE "0:"
    INDEX 01 12:39:44
  TRACK 590 AUDIO
    TITLE "30:cjc024_5554"
    INDEX 01 12:40:06
  TRACK 591 AUDIO
    TITLE "0:"
    INDEX 01 12:42:30
  TRACK 592 AUDIO
    TITLE "31:cjc024_5555"
    INDEX 01 12:42:58
  TRACK 593 AUDIO
    TITLE "0:"
    INDEX 01 12:45:07
  TRACK 594 AUDIO
    TITLE "28:cjc024_5556"
    INDEX 01 12:46:08
  TRACK 595 AUDIO
    TITLE "0:"
    INDEX 01 12:47:22
  TRACK 596 AUDIO
    TITLE "29:cjc024_5557"
    INDEX 01 12:47:67
  TRACK 597 AUDIO
    TITLE "0:"
    INDEX 01 12:50:42
  TRACK 598 AUDIO
    TITLE "30:cjc024_5558"
    INDEX 01 12:51:08
  TRACK 599 AUDIO
    TITLE "0:"
    INDEX 01 12:53:65
  TRACK 600 AUDIO
    TITLE "31:cjc024_5559"
    INDEX 01 12:54:18
  TRACK 601 AUDIO
    TITLE "0:"
    INDEX 01 12:57:00
  TRACK 602 AUDIO
    TITLE "28:cjc024_5560"
    INDEX 01 12:58:06
  TRACK 603 AUDIO
    TITLE "0:"
    INDEX 01 12:59:15
  TRACK 604 AUDIO
    TITLE "29:cjc024_5561"
    INDEX 01 12:59:52
  TRACK 605 AUDIO
    TITLE "0:"
    INDEX 01 13:02:17
  TRACK 606 AUDIO
    TITLE "30:cjc024_5562"
    INDEX 01 13:02:58
  TRACK 607 AUDIO
    TITLE "0:"
    INDEX 01 13:05:45
  TRACK 608 AUDIO
    TITLE "31:cjc024_5563"
    INDEX 01 13:05:70
  TRACK 609 AUDIO
    TITLE "0:"
    INDEX 01 13:08:57
  TRACK 610 AUDIO
    TITLE "28:cjc024_5564"
    INDEX 01 13:09:58
  TRACK 611 AUDIO
    TITLE "0:"
    INDEX 01 13:11:16
  TRACK 612 AUDIO
    TITLE "29:cjc024_5565"
    INDEX 01 13:11:53
  TRACK 613 AUDIO
    TITLE "0:"
    INDEX 01 13:13:56
  TRACK 614 AUDIO
    TITLE "30:cjc024_5566"
    INDEX 01 13:14:20
  TRACK 615 AUDIO
    TITLE "0:"
    INDEX 01 13:16:27
  TRACK 616 AUDIO
    TITLE "31:cjc024_5567"
    INDEX 01 13:16:55
  TRACK 617 AUDIO
    TITLE "0:"
    INDEX 01 13:18:61
  TRACK 618 AUDIO
    TITLE "28:cjc024_5568"
    INDEX 01 13:19:63
  TRACK 619 AUDIO
    TITLE "0:"
    INDEX 01 13:20:70
  TRACK 620 AUDIO
    TITLE "29:cjc024_5569"
    INDEX 01 13:21:32
  TRACK 621 AUDIO
    TITLE "0:"
    INDEX 01 13:23:10
  TRACK 622 AUDIO
    TITLE "30:cjc024_5570"
    INDEX 01 13:23:53
  TRACK 623 AUDIO
    TITLE "0:"
    INDEX 01 13:26:00
  TRACK 624 AUDIO
    TITLE "31:cjc024_5571"
    INDEX 01 13:26:28
  TRACK 625 AUDIO
    TITLE "0:"
    INDEX 01 13:28:52
  TRACK 626 AUDIO
    TITLE "28:cjc024_5572"
    INDEX 01 13:29:49
  TRACK 627 AUDIO
    TITLE "0:"
    INDEX 01 13:30:68
  TRACK 628 AUDIO
    TITLE "29:cjc024_5573"
    INDEX 01 13:31:33
  TRACK 629 AUDIO
    TITLE "0:"
    INDEX 01 13:35:44
  TRACK 630 AUDIO
    TITLE "30:cjc024_5574"
    INDEX 01 13:36:12
  TRACK 631 AUDIO
    TITLE "0:"
    INDEX 01 13:39:44
  TRACK 632 AUDIO
    TITLE "31:cjc024_5575"
    INDEX 01 13:39:67
  TRACK 633 AUDIO
    TITLE "0:"
    INDEX 01 13:43:22
  TRACK 634 AUDIO
    TITLE "28:cjc024_5576"
    INDEX 01 13:44:24
  TRACK 635 AUDIO
    TITLE "0:"
    INDEX 01 13:45:45
  TRACK 636 AUDIO
    TITLE "29:cjc024_5577"
    INDEX 01 13:46:07
  TRACK 637 AUDIO
    TITLE "0:"
    INDEX 01 13:48:37
  TRACK 638 AUDIO
    TITLE "30:cjc024_5578"
    INDEX 01 13:49:05
  TRACK 639 AUDIO
    TITLE "0:"
    INDEX 01 13:51:43
  TRACK 640 AUDIO
    TITLE "31:cjc024_5579"
    INDEX 01 13:51:73
  TRACK 641 AUDIO
    TITLE "0:"
    INDEX 01 13:54:36
  TRACK 642 AUDIO
    TITLE "28:cjc024_5580"
    INDEX 01 13:55:35
  TRACK 643 AUDIO
    TITLE "0:"
    INDEX 01 13:56:35
  TRACK 644 AUDIO
    TITLE "29:cjc024_5581"
    INDEX 01 13:57:01
  TRACK 645 AUDIO
    TITLE "0:"
    INDEX 01 13:58:61
  TRACK 646 AUDIO
    TITLE "30:cjc024_5582"
    INDEX 01 13:59:25
  TRACK 647 AUDIO
    TITLE "0:"
    INDEX 01 14:01:30
  TRACK 648 AUDIO
    TITLE "31:cjc024_5583"
    INDEX 01 14:01:53
  TRACK 649 AUDIO
    TITLE "0:"
    INDEX 01 14:03:56
  TRACK 650 AUDIO
    TITLE "28:cjc024_5584"
    INDEX 01 14:04:58
  TRACK 651 AUDIO
    TITLE "0:"
    INDEX 01 14:05:59
  TRACK 652 AUDIO
    TITLE "29:cjc024_5585"
    INDEX 01 14:06:27
  TRACK 653 AUDIO
    TITLE "0:"
    INDEX 01 14:08:26
  TRACK 654 AUDIO
    TITLE "30:cjc024_5586"
    INDEX 01 14:08:63
  TRACK 655 AUDIO
    TITLE "0:"
    INDEX 01 14:11:15
  TRACK 656 AUDIO
    TITLE "31:cjc024_5587"
    INDEX 01 14:11:40
  TRACK 657 AUDIO
    TITLE "0:"
    INDEX 01 14:13:64
  TRACK 658 AUDIO
    TITLE "28:cjc024_5588"
    INDEX 01 14:14:64
  TRACK 659 AUDIO
    TITLE "0:"
    INDEX 01 14:15:69
  TRACK 660 AUDIO
    TITLE "29:cjc024_5589"
    INDEX 01 14:16:33
  TRACK 661 AUDIO
    TITLE "0:"
    INDEX 01 14:17:64
  TRACK 662 AUDIO
    TITLE "30:cjc024_5590"
    INDEX 01 14:18:28
  TRACK 663 AUDIO
    TITLE "0:"
    INDEX 01 14:20:06
  TRACK 664 AUDIO
    TITLE "31:cjc024_5591"
    INDEX 01 14:20:37
  TRACK 665 AUDIO
    TITLE "0:"
    INDEX 01 14:22:12
  TRACK 666 AUDIO
    TITLE "28:cjc024_5592"
    INDEX 01 14:23:20
  TRACK 667 AUDIO
    TITLE "0:"
    INDEX 01 14:24:27
  TRACK 668 AUDIO
    TITLE "29:cjc024_5593"
    INDEX 01 14:24:70
  TRACK 669 AUDIO
    TITLE "0:"
    INDEX 01 14:26:42
  TRACK 670 AUDIO
    TITLE "30:cjc024_5594"
    INDEX 01 14:27:06
  TRACK 671 AUDIO
    TITLE "0:"
    INDEX 01 14:28:62
  TRACK 672 AUDIO
    TITLE "31:cjc024_5595"
    INDEX 01 14:29:09
  TRACK 673 AUDIO
    TITLE "0:"
    INDEX 01 14:30:67
  TRACK 674 AUDIO
    TITLE "28:cjc024_5596"
    INDEX 01 14:31:64
  TRACK 675 AUDIO
    TITLE "0:"
    INDEX 01 14:32:68
  TRACK 676 AUDIO
    TITLE "29:cjc024_5597"
    INDEX 01 14:33:36
  TRACK 677 AUDIO
    TITLE "0:"
    INDEX 01 14:35:52
  TRACK 678 AUDIO
    TITLE "30:cjc024_5598"
    INDEX 01 14:36:14
  TRACK 679 AUDIO
    TITLE "0:"
    INDEX 01 14:37:63
  TRACK 680 AUDIO
    TITLE "31:cjc024_5599"
    INDEX 01 14:38:13
  TRACK 681 AUDIO
    TITLE "0:"
    INDEX 01 14:39:62
  TRACK 682 AUDIO
    TITLE "28:cjc024_5600"
    INDEX 01 14:40:59
  TRACK 683 AUDIO
    TITLE "0:"
    INDEX 01 14:41:61
  TRACK 684 AUDIO
    TITLE "29:cjc024_5601"
    INDEX 01 14:42:35
  TRACK 685 AUDIO
    TITLE "0:"
    INDEX 01 14:45:57
  TRACK 686 AUDIO
    TITLE "30:cjc024_5602"
    INDEX 01 14:46:23
  TRACK 687 AUDIO
    TITLE "0:"
    INDEX 01 14:48:61
  TRACK 688 AUDIO
    TITLE "31:cjc024_5603"
    INDEX 01 14:49:07
  TRACK 689 AUDIO
    TITLE "0:"
    INDEX 01 14:51:45
  TRACK 690 AUDIO
    TITLE "28:cjc024_5604"
    INDEX 01 14:52:47
  TRACK 691 AUDIO
    TITLE "0:"
    INDEX 01 14:53:52
  TRACK 692 AUDIO
    TITLE "29:cjc024_5605"
    INDEX 01 14:54:14
  TRACK 693 AUDIO
    TITLE "0:"
    INDEX 01 14:56:01
  TRACK 694 AUDIO
    TITLE "30:cjc024_5606"
    INDEX 01 14:56:45
  TRACK 695 AUDIO
    TITLE "0:"
    INDEX 01 14:58:12
  TRACK 696 AUDIO
    TITLE "31:cjc024_5607"
    INDEX 01 14:58:40
  TRACK 697 AUDIO
    TITLE "0:"
    INDEX 01 15:00:07
  TRACK 698 AUDIO
    TITLE "28:cjc024_5608"
    INDEX 01 15:01:09
  TRACK 699 AUDIO
    TITLE "0:"
    INDEX 01 15:02:20
  TRACK 700 AUDIO
    TITLE "29:cjc024_5609"
    INDEX 01 15:02:59
  TRACK 701 AUDIO
    TITLE "0:"
    INDEX 01 15:05:26
  TRACK 702 AUDIO
    TITLE "30:cjc024_5610"
    INDEX 01 15:05:71
  TRACK 703 AUDIO
    TITLE "0:"
    INDEX 01 15:08:42
  TRACK 704 AUDIO
    TITLE "31:cjc024_5611"
    INDEX 01 15:08:73
  TRACK 705 AUDIO
    TITLE "0:"
    INDEX 01 15:11:46
  TRACK 706 AUDIO
    TITLE "28:cjc024_5612"
    INDEX 01 15:12:49
  TRACK 707 AUDIO
    TITLE "0:"
    INDEX 01 15:13:72
  TRACK 708 AUDIO
    TITLE "29:cjc024_5613"
    INDEX 01 15:14:44
  TRACK 709 AUDIO
    TITLE "0:"
    INDEX 01 15:17:00
  TRACK 710 AUDIO
    TITLE "30:cjc024_5614"
    INDEX 01 15:17:39
  TRACK 711 AUDIO
    TITLE "0:"
    INDEX 01 15:20:22
  TRACK 712 AUDIO
    TITLE "31:cjc024_5615"
    INDEX 01 15:20:47
  TRACK 713 AUDIO
    TITLE "0:"
    INDEX 01 15:23:28
  TRACK 714 AUDIO
    TITLE "28:cjc024_5616"
    INDEX 01 15:24:27
  TRACK 715 AUDIO
    TITLE "0:"
    INDEX 01 15:25:38
  TRACK 716 AUDIO
    TITLE "29:cjc024_5617"
    INDEX 01 15:26:05
  TRACK 717 AUDIO
    TITLE "0:"
    INDEX 01 15:28:27
  TRACK 718 AUDIO
    TITLE "30:cjc024_5618"
    INDEX 01 15:28:60
  TRACK 719 AUDIO
    TITLE "0:"
    INDEX 01 15:30:71
  TRACK 720 AUDIO
    TITLE "31:cjc024_5619"
    INDEX 01 15:31:17
  TRACK 721 AUDIO
    TITLE "0:"
    INDEX 01 15:33:26
  TRACK 722 AUDIO
    TITLE "28:cjc024_5620"
    INDEX 01 15:34:28
  TRACK 723 AUDIO
    TITLE "0:"
    INDEX 01 15:35:43
  TRACK 724 AUDIO
    TITLE "29:cjc024_5621"
    INDEX 01 15:36:07
  TRACK 725 AUDIO
    TITLE "0:"
    INDEX 01 15:39:03
  TRACK 726 AUDIO
    TITLE "30:cjc024_5622"
    INDEX 01 15:39:40
  TRACK 727 AUDIO
    TITLE "0:"
    INDEX 01 15:41:51
  TRACK 728 AUDIO
    TITLE "31:cjc024_5623"
    INDEX 01 15:42:06
  TRACK 729 AUDIO
    TITLE "0:"
    INDEX 01 15:44:14
  TRACK 730 AUDIO
    TITLE "28:cjc024_5624"
    INDEX 01 15:45:18
  TRACK 731 AUDIO
    TITLE "0:"
    INDEX 01 15:46:35
  TRACK 732 AUDIO
    TITLE "29:cjc024_5625"
    INDEX 01 15:46:74
  TRACK 733 AUDIO
    TITLE "0:"
    INDEX 01 15:50:23
  TRACK 734 AUDIO
    TITLE "30:cjc024_5626"
    INDEX 01 15:50:60
  TRACK 735 AUDIO
    TITLE "0:"
    INDEX 01 15:52:74
  TRACK 736 AUDIO
    TITLE "31:cjc024_5627"
    INDEX 01 15:53:27
  TRACK 737 AUDIO
    TITLE "0:"
    INDEX 01 15:55:43
  TRACK 738 AUDIO
    TITLE "28:cjc024_5628"
    INDEX 01 15:56:45
  TRACK 739 AUDIO
    TITLE "0:"
    INDEX 01 15:57:58
  TRACK 740 AUDIO
    TITLE "29:cjc024_5629"
    INDEX 01 15:58:20
  TRACK 741 AUDIO
    TITLE "0:"
    INDEX 01 16:00:11
  TRACK 742 AUDIO
    TITLE "30:cjc024_5630"
    INDEX 01 16:00:48
  TRACK 743 AUDIO
    TITLE "0:"
    INDEX 01 16:02:45
  TRACK 744 AUDIO
    TITLE "31:cjc024_5631"
    INDEX 01 16:02:73
  TRACK 745 AUDIO
    TITLE "0:"
    INDEX 01 16:04:70
  TRACK 746 AUDIO
    TITLE "28:cjc024_5632"
    INDEX 01 16:05:67
  TRACK 747 AUDIO
    TITLE "0:"
    INDEX 01 16:06:73
  TRACK 748 AUDIO
    TITLE "29:cjc024_5633"
    INDEX 01 16:07:35
  TRACK 749 AUDIO
    TITLE "0:"
    INDEX 01 16:11:03
  TRACK 750 AUDIO
    TITLE "30:cjc024_5634"
    INDEX 01 16:11:42
  TRACK 751 AUDIO
    TITLE "0:"
    INDEX 01 16:14:02
  TRACK 752 AUDIO
    TITLE "31:cjc024_5635"
    INDEX 01 16:14:25
  TRACK 753 AUDIO
    TITLE "0:"
    INDEX 01 16:16:57
  TRACK 754 AUDIO
    TITLE "28:cjc024_5636"
    INDEX 01 16:17:61
  TRACK 755 AUDIO
    TITLE "0:"
    INDEX 01 16:19:01
  TRACK 756 AUDIO
    TITLE "29:cjc024_5637"
    INDEX 01 16:19:38
  TRACK 757 AUDIO
    TITLE "0:"
    INDEX 01 16:22:23
  TRACK 758 AUDIO
    TITLE "30:cjc024_5638"
    INDEX 01 16:22:66
  TRACK 759 AUDIO
    TITLE "0:"
    INDEX 01 16:24:71
  TRACK 760 AUDIO
    TITLE "31:cjc024_5639"
    INDEX 01 16:25:23
  TRACK 761 AUDIO
    TITLE "0:"
    INDEX 01 16:27:30
  TRACK 762 AUDIO
    TITLE "28:cjc024_5640"
    INDEX 01 16:28:27
  TRACK 763 AUDIO
    TITLE "0:"
    INDEX 01 16:29:34
  TRACK 764 AUDIO
    TITLE "29:cjc024_5641"
    INDEX 01 16:30:01
  TRACK 765 AUDIO
    TITLE "0:"
    INDEX 01 16:32:56
  TRACK 766 AUDIO
    TITLE "30:cjc024_5642"
    INDEX 01 16:33:21
  TRACK 767 AUDIO
    TITLE "0:"
    INDEX 01 16:35:31
  TRACK 768 AUDIO
    TITLE "31:cjc024_5643"
    INDEX 01 16:35:57
  TRACK 769 AUDIO
    TITLE "0:"
    INDEX 01 16:37:67
  TRACK 770 AUDIO
    TITLE "28:cjc024_5644"
    INDEX 01 16:38:71
  TRACK 771 AUDIO
    TITLE "0:"
    INDEX 01 16:40:23
  TRACK 772 AUDIO
    TITLE "29:cjc024_5645"
    INDEX 01 16:40:62
  TRACK 773 AUDIO
    TITLE "0:"
    INDEX 01 16:42:33
  TRACK 774 AUDIO
    TITLE "30:cjc024_5646"
    INDEX 01 16:43:05
  TRACK 775 AUDIO
    TITLE "0:"
    INDEX 01 16:44:60
  TRACK 776 AUDIO
    TITLE "31:cjc024_5647"
    INDEX 01 16:45:10
  TRACK 777 AUDIO
    TITLE "0:"
    INDEX 01 16:46:60
  TRACK 778 AUDIO
    TITLE "28:cjc024_5648"
    INDEX 01 16:47:62
  TRACK 779 AUDIO
    TITLE "0:"
    INDEX 01 16:48:57
  TRACK 780 AUDIO
    TITLE "29:cjc024_5649"
    INDEX 01 16:49:21
  TRACK 781 AUDIO
    TITLE "0:"
    INDEX 01 16:50:70
  TRACK 782 AUDIO
    TITLE "30:cjc024_5650"
    INDEX 01 16:51:38
  TRACK 783 AUDIO
    TITLE "0:"
    INDEX 01 16:53:31
  TRACK 784 AUDIO
    TITLE "31:cjc024_5651"
    INDEX 01 16:53:55
  TRACK 785 AUDIO
    TITLE "0:"
    INDEX 01 16:55:48
  TRACK 786 AUDIO
    TITLE "28:cjc024_5652"
    INDEX 01 16:56:47
  TRACK 787 AUDIO
    TITLE "0:"
    INDEX 01 16:57:54
  TRACK 788 AUDIO
    TITLE "29:cjc024_5653"
    INDEX 01 16:58:18
  TRACK 789 AUDIO
    TITLE "0:"
    INDEX 01 17:02:10
  TRACK 790 AUDIO
    TITLE "30:cjc024_5654"
    INDEX 01 17:02:48
  TRACK 791 AUDIO
    TITLE "0:"
    INDEX 01 17:05:60
  TRACK 792 AUDIO
    TITLE "31:cjc024_5655"
    INDEX 01 17:06:08
  TRACK 793 AUDIO
    TITLE "0:"
    INDEX 01 17:09:20
  TRACK 794 AUDIO
    TITLE "28:cjc024_5656"
    INDEX 01 17:10:22
  TRACK 795 AUDIO
    TITLE "0:"
    INDEX 01 17:11:35
  TRACK 796 AUDIO
    TITLE "29:cjc024_5657"
    INDEX 01 17:11:74
  TRACK 797 AUDIO
    TITLE "0:"
    INDEX 01 17:14:02
  TRACK 798 AUDIO
    TITLE "30:cjc024_5658"
    INDEX 01 17:14:41
  TRACK 799 AUDIO
    TITLE "0:"
    INDEX 01 17:16:54
  TRACK 800 AUDIO
    TITLE "31:cjc024_5659"
    INDEX 01 17:17:06
  TRACK 801 AUDIO
    TITLE "0:"
    INDEX 01 17:19:19
